<?xml version="1.0" standalone="no"?>
<!DOCTYPE svg PUBLIC "-//W3C//DTD SVG 20010904//EN"
 "http://www.w3.org/TR/2001/REC-SVG-20010904/DTD/svg10.dtd">
<svg version="1.0" xmlns="http://www.w3.org/2000/svg"
 width="1356.000000pt" height="478.000000pt" viewBox="0 0 1356.000000 478.000000"
 preserveAspectRatio="xMidYMid meet">

<g transform="translate(0.000000,478.000000) scale(0.100000,-0.100000)"
fill="#000000" stroke="none">
<path d="M0 4270 l0 -510 255 0 255 0 0 345 0 345 340 0 340 0 0 165 0 165
-595 0 -595 0 0 -510z"/>
<path d="M1800 4773 c362 -57 631 -192 880 -442 189 -190 300 -367 380 -610
55 -165 73 -285 73 -471 0 -239 -40 -423 -138 -627 -188 -393 -525 -688 -946
-828 -172 -57 -306 -75 -601 -82 l-258 -6 0 171 0 172 -340 0 -340 0 0 345 0
345 -255 0 -255 0 0 -1305 0 -1305 2223 1 c1842 1 2214 3 2175 14 -98 27 -190
100 -233 185 -39 78 -45 136 -45 443 0 215 -3 296 -12 305 -7 7 -29 12 -50 12
l-38 0 0 70 0 70 90 0 c104 0 157 -16 165 -52 2 -13 6 -178 7 -368 3 -378 5
-389 66 -453 50 -53 99 -72 187 -72 88 0 137 19 187 72 61 63 62 76 66 453 1
190 5 355 8 368 7 36 60 52 164 52 l90 0 0 -70 0 -70 -37 0 c-21 0 -43 -4 -50
-8 -8 -5 -12 -98 -15 -332 -3 -310 -5 -328 -26 -382 -41 -103 -145 -196 -251
-224 -37 -10 492 -13 2634 -13 2613 0 2679 1 2623 18 -65 21 -137 65 -185 112
l-33 31 46 54 c26 30 48 54 51 54 2 0 27 -17 56 -39 90 -67 113 -76 208 -76
78 0 89 2 121 27 49 38 74 103 58 152 -17 52 -64 87 -230 171 -177 90 -237
141 -265 224 -22 67 -16 159 13 217 26 51 91 110 151 137 34 15 73 22 148 25
122 5 206 -18 271 -74 46 -39 62 -80 62 -161 l0 -53 -75 0 -75 0 0 36 c0 133
-273 149 -331 20 -24 -54 -12 -103 34 -142 18 -15 100 -60 182 -100 209 -101
271 -166 282 -295 14 -150 -65 -270 -210 -320 -50 -18 -4 -18 1571 -19 l1622
0 0 1880 0 1880 -69 0 -68 0 -18 108 c-18 112 -55 243 -85 302 -30 59 -95 124
-152 153 -81 41 -173 57 -340 57 l-148 0 0 -1245 0 -1245 190 0 190 0 0 -70 0
-70 -645 0 -645 0 0 70 0 70 190 0 190 0 0 1245 0 1245 -139 0 c-393 0 -509
-100 -581 -503 -11 -61 -20 -112 -20 -114 0 -2 -32 -3 -70 -3 l-70 0 6 93 c3
50 13 214 23 362 l16 270 1100 0 1100 0 21 -330 21 -330 2 413 1 412 -5812 -1
c-3197 -1 -5802 -4 -5788 -6z m3710 -177 c318 -63 491 -199 545 -428 17 -72
19 -242 4 -307 -28 -123 -132 -253 -259 -324 -116 -64 -339 -127 -535 -150
-39 -4 -29 -8 128 -45 229 -55 388 -153 471 -290 80 -134 112 -286 124 -594 9
-206 9 -207 41 -273 23 -46 46 -76 74 -96 85 -62 90 -63 365 -67 l252 -4 0
1231 0 1231 -175 0 -175 0 0 70 0 70 505 0 504 0 31 -97 c16 -54 144 -470 283
-926 l253 -827 279 877 c153 483 285 899 292 926 l15 47 509 0 509 0 0 -70 0
-70 -175 0 -175 0 0 -1230 0 -1230 175 0 175 0 0 -70 0 -70 -620 0 -620 0 0
70 0 70 180 0 180 0 -1 1213 -1 1212 -32 -95 c-18 -52 -203 -630 -412 -1283
l-379 -1188 -75 3 -75 3 -402 1265 -402 1265 -1 -1197 0 -1198 170 0 170 0 0
-70 0 -71 -687 3 c-669 3 -690 4 -765 25 -184 52 -283 141 -338 304 -17 51
-24 103 -31 249 -19 402 -60 585 -153 687 -77 85 -273 150 -483 160 l-123 6 0
-647 0 -646 180 0 180 0 0 -70 0 -70 -620 0 -620 0 0 70 0 70 175 0 175 0 0
1230 0 1230 -175 0 -175 0 0 71 0 70 828 -4 c725 -3 837 -6 912 -21z m5510
-46 l0 -70 -180 0 -180 0 0 -1230 0 -1230 180 0 180 0 0 -70 0 -70 -620 0
-620 0 0 70 0 70 175 0 175 0 0 1230 0 1230 -175 0 -175 0 0 70 0 70 620 0
620 0 0 -70z m-5445 -3592 c105 -149 228 -327 275 -397 l85 -126 0 372 0 372
23 23 c19 20 34 23 127 26 l105 4 0 -71 0 -71 -29 0 c-65 0 -61 34 -61 -476
l0 -464 -78 0 -77 0 -230 326 c-127 180 -250 359 -275 398 l-45 72 0 -377 c0
-457 13 -419 -147 -419 l-108 0 0 69 0 70 48 3 47 3 3 468 2 467 73 0 72 -1
190 -271z m1135 202 l0 -70 -50 0 -50 0 0 -400 0 -400 50 0 50 0 0 -70 0 -70
-180 0 -180 0 0 70 0 70 50 0 50 0 0 400 0 400 -50 0 -50 0 0 70 0 70 180 0
180 0 0 -70z m233 59 c20 -5 43 -20 51 -32 16 -25 270 -735 281 -785 3 -17 10
-32 15 -32 5 0 12 15 15 32 11 50 265 760 281 785 17 27 71 43 142 43 l52 0 0
-69 c0 -69 0 -69 -29 -76 -16 -3 -31 -12 -34 -18 -2 -7 -80 -216 -172 -464
l-168 -453 -87 0 -87 0 -74 198 c-286 774 -263 716 -297 732 -31 15 -32 17
-32 83 l0 67 53 0 c28 0 69 -5 90 -11z m1629 -17 c20 -20 23 -34 26 -122 l4
-100 -76 0 -76 0 0 43 c0 24 -5 48 -12 55 -8 8 -59 12 -165 12 l-153 0 0 -165
0 -165 190 0 190 0 0 -70 0 -70 -190 0 -190 0 2 -162 3 -163 180 0 180 0 3 48
3 47 75 0 74 0 0 -94 c0 -79 -3 -97 -21 -120 l-20 -26 -299 0 -299 0 -20 26
c-21 26 -21 37 -21 470 l0 444 -50 0 -50 0 0 70 0 71 345 -3 c343 -3 345 -3
367 -26z m779 4 c64 -23 125 -78 156 -140 34 -67 43 -187 19 -268 -18 -63 -78
-138 -126 -158 -17 -7 -29 -16 -28 -19 37 -79 164 -318 172 -323 6 -4 26 -8
44 -8 l32 0 0 -70 0 -70 -83 0 c-59 0 -89 4 -105 16 -13 9 -61 92 -108 186
-47 93 -96 181 -109 194 -22 22 -32 24 -115 24 l-90 0 0 -210 0 -210 -85 0
-85 0 0 470 0 470 -45 0 -45 0 0 71 0 71 278 -4 c232 -4 285 -7 323 -22z
m1579 -46 l0 -70 -50 0 -50 0 0 -400 0 -400 50 0 50 0 0 -70 0 -70 -180 0
-180 0 0 70 0 70 50 0 50 0 0 400 0 400 -50 0 -50 0 0 70 0 70 180 0 180 0 0
-70z m1001 41 c16 -19 19 -40 19 -122 l0 -99 -70 0 -70 0 0 39 c0 63 -15 71
-136 71 l-104 0 0 -470 0 -470 -80 0 -80 0 0 470 0 470 -104 0 c-57 0 -111 -3
-120 -6 -12 -4 -16 -20 -16 -55 l0 -49 -75 0 -75 0 0 93 c0 102 12 137 50 148
14 4 209 7 433 6 l409 -2 19 -24z m247 2 c29 -21 72 -87 199 -305 l80 -137 18
37 c32 69 218 372 241 396 25 24 69 36 142 36 l42 0 0 -70 c0 -68 -1 -70 -24
-70 -14 0 -36 -10 -50 -22 -14 -13 -86 -122 -160 -244 l-136 -220 0 -227 0
-227 -80 0 -80 0 0 234 0 235 -143 228 c-135 215 -145 229 -180 237 l-37 10 0
69 0 70 71 -5 c49 -4 79 -12 97 -25z"/>
<path d="M4650 3964 l0 -516 248 5 c167 3 265 9 303 19 224 58 311 216 296
538 -10 197 -47 313 -121 378 -90 78 -158 92 -478 92 l-248 0 0 -516z"/>
<path d="M9010 901 l0 -191 103 0 c125 0 172 12 214 56 58 62 64 183 12 256
-36 50 -72 61 -206 66 l-123 4 0 -191z"/>
</g>
</svg>
